# xmcd
# 
# Track frame offsets:
#     150
#     14515
#     30153
#     51324
#     67320
#     84027
#     106393
#     119631
#     136255
#     156618
#     171808
#     188035
# 
# Disc length: 2706
# 
# Revision: 0
# Processed by: cddbd v1.5.2PL0 Copyright (c) Steve Scherf et al.
# Submitted via: fre:ac v1.1beta1pre4
# 
DISCID=a20a900c
DTITLE=Moors And McCumber - Live From Blue Rock D2
DYEAR=2016
DGENRE=Folk
TTITLE0=It's Different Now
TTITLE1=Love And War
TTITLE2=Raining Down In Georgia
TTITLE3=Quick As I Can
TTITLE4=No Way To Live
TTITLE5=Caged Bird
TTITLE6=Buried In Stone
TTITLE7=My Heart Is Open
TTITLE8=Silver Lake
TTITLE9=Bend Or Be Broken
TTITLE10=I Used To Run Around
TTITLE11=All Great Tragedy
EXTD=
EXTT0=
EXTT1=
EXTT2=
EXTT3=
EXTT4=
EXTT5=
EXTT6=
EXTT7=
EXTT8=
EXTT9=
EXTT10=
EXTT11=
PLAYORDER=
